*<svg width="-" height="767.9999999999999" xmlns="http://www.w3.org/2000/svg">

 <g>
  <title>Layer 1</title>
  <path d="m296.57144,546.71434c7.14285,-10.71429 8.15436,-13.5921 7.85715,-15.71429c-0.72125,-5.14984 -3.25589,-7.51379 -5.71429,-9.28571c-2.59143,-1.8678 -6.60289,-2.02765 -10,-0.71429c-3.88477,1.50189 -7.57803,6.08624 -11.42857,11.42859c-4.87059,6.75757 -8.39528,14.12476 -10.71429,22.85712c-2.80447,10.56042 -3.97859,22.19189 -2.85713,35c1.07553,12.28351 4.64514,23.13 10,27.85718c4.31721,3.81116 11.13254,3.65594 17.14285,0c7.81509,-4.75372 15.22418,-13.42053 22.85715,-25c8.83426,-13.40186 17.66544,-29.73785 26.42856,-47.85718c9.88345,-20.43585 18.86862,-41.2916 29.28574,-64.28571c10.29544,-22.72559 20.34027,-45.54776 30,-65.71429c8.14645,-17.00729 14.80872,-31.21371 19.28571,-42.85715c3.24261,-8.43314 4.81732,-14.00058 3.57144,-15c-2.29727,-1.84283 -6.77847,1.84811 -12.14288,8.57144c-7.66446,9.60605 -14.84082,23.34103 -21.42856,40c-7.80972,19.74915 -13.45694,42.6557 -16.42856,66.42856c-2.57541,20.60315 -2.80911,38.18362 0.71426,50.00003c3.1088,10.42609 8.78983,18.23773 15.71429,20.71429c7.5195,2.68939 17.64178,0.08167 27.14285,-6.42859c12.14731,-8.32349 24.73633,-21.76477 37.85715,-37.85715c14.80606,-18.1593 65.13025,-80.01868 95,-117.14288c24.27039,-30.16495 32.61145,-43.31787 37.85718,-53.57141c3.93091,-7.68359 2.29266,-18.56448 -2.85718,-19.28574c-8.48859,-1.18887 -21.02753,2.91901 -36.42856,10.71429c-18.26062,9.24268 -38.78317,21.82507 -61.42859,37.14285c-23.79855,16.09778 -74.85849,55.75507 -94.28571,72.85715c-25.7905,22.7038 -72.66968,73.84607 -92.85715,98.57147c-18.34436,22.46796 -59.85051,63.51825 -66.42857,136.42853c-1.09865,12.17719 13.17715,31.79346 23.57143,32.14288c30.66373,1.03076 72.44952,-28.8219 98.57144,-46.42859c28.91995,-19.49261 61.36612,-43.66162 96.42856,-67.85712c36.36407,-25.09375 73.98764,-48.39258 112.14285,-69.28574c36.15332,-19.79694 71.90839,-37.66754 105,-52.14285c30.50586,-13.34421 58.57147,-23.57144 83.57147,-32.85715l22.14282,-7.85715l35,-12.14285l7.14288,-2.85715" id="svg_8" stroke="#000" fill="none"/>
  <path d="m382.28574,581.00006c0,0 -5.3284,14.88739 -7.14285,20.71429c-1.75119,5.62378 -3.57144,11.42853 -5,17.14282c-1.42859,5.71429 -4.28574,18.57141 -4.28574,20.71429l-0.71429,4.28571" id="svg_15" stroke="#000" fill="none"/>
  <path d="m419.42859,567.42859c10,-5 13.64142,-7.29492 18.57141,-15c1.72162,-2.69073 3.53943,-3.96368 4.28574,-6.42853c0.414,-1.36731 0.71426,-2.85718 0.71426,-3.57147c0,-0.71423 -0.71426,-0.71423 -1.42856,-0.71423c-2.14285,0 -3.81598,1.1167 -5.71429,2.85712c-10.11368,9.27246 -7.55795,15.29919 -6.42856,16.42859c1.12936,1.12939 3.79285,1.66962 5.71429,2.85712c1.71857,1.06213 3.48679,2.27881 5.71426,3.57141c1.38144,0.8017 3.15634,1.72778 4.28574,2.85718c1.12939,1.12939 1.51596,4.33282 0.71426,5.71429c-1.29263,2.22748 -2.65295,5.15118 -4.28571,7.14282c-2.56171,3.12482 -7.02237,6.58612 -10.71429,9.28571c-4.15781,3.04028 -7.17236,4.89087 -10,5.71429c-2.1687,0.63153 -3.62579,1.70197 -4.28571,1.42859c-0.93326,-0.3866 -1.42859,-1.13275 -1.42856,-2.14288c0.00003,-1.01007 1.42856,-1.42853 2.14285,-2.14282l0.71426,-0.71429l0.71429,-0.71429l2.85715,-1.42859" id="svg_17" stroke="#000" fill="none"/>
  <path d="m472.28574,525.28577c-2.85715,19.28571 -2.23022,21.47571 -1.42859,22.85712c1.29266,2.22754 2.05826,3.70734 4.28574,5c1.38141,0.80164 2.74124,1.42859 5,1.42859c2.25876,0 4.43689,-2.65289 6.42856,-4.28571c3.12479,-2.56177 5,-5 7.14285,-7.85718c2.14285,-2.85712 4.28574,-5 5.71429,-7.14282c1.42856,-2.14288 2.5838,-3.62579 2.85715,-4.28571c0.38657,-0.93329 0.5051,-0.50507 0,0c-0.5051,0.50507 -0.71429,0.71429 -1.42859,0.71429l0,-0.71429" id="svg_18" stroke="#000" fill="none"/>
  <path d="m520.85718,509.57147c-5.71429,10.71429 -5.27808,12.25665 -4.28571,14.28571c1.13147,2.31354 2.41095,4.95715 6.42853,7.14288c1.98419,1.07947 4.58008,0.73676 7.14288,-0.71429c3.51611,-1.99084 5.98608,-5.54504 8.57141,-10c2.40503,-4.14429 5.9043,-11.40121 6.42859,-15.71429c1.12378,-9.24509 1.01453,-13.6835 -0.71429,-17.85715c-1.83368,-4.42682 -5,-7.14285 -7.85712,-7.85715l-11.42859,7.85715l-2.14288,3.57144l-2.14282,4.28571" id="svg_19" stroke="#000" fill="none"/>
  <path d="m572.28571,482.42862c9.28577,-7.85715 10.49469,-9.41861 11.42859,-10.71429c1.18134,-1.63895 2.26654,-2.75195 2.85718,-3.57144c0.93384,-1.29568 1.63776,-1.63776 2.14282,-2.14285c0.50507,-0.50507 0.50507,-1.93365 0,-1.42856c-0.50507,0.5051 0.16412,1.44766 0,2.14285c-0.36694,1.55444 -0.71429,2.14282 -1.42859,2.85715c-0.71423,0.71429 -1.06158,1.30267 -1.42853,2.85715c-0.32819,1.39035 -5.27435,3.70566 -2.14288,7.85715c0.43011,0.57025 2.16199,0.87839 2.85718,0.71426c1.55444,-0.36694 2.2757,-1.20895 3.57141,-2.14285c0.81946,-0.59067 2.07593,-1.50241 2.85712,-2.14285c1.9917,-1.63278 3.14575,-1.72253 6.42859,-4.28571c1.59241,-1.24335 1.92389,-1.75629 2.85712,-2.14285c0.65991,-0.27335 1.42859,0 1.42859,-0.71429c0,-0.71429 -0.82098,0.33875 -1.42859,0.71429c-1.35858,0.83969 -1.72772,1.72772 -2.85712,2.85712c-1.12939,1.12939 -4.98688,6.22287 -5.71429,10c-0.27014,1.4028 -0.32825,2.89536 0,4.28574c0.36694,1.55444 2.05615,2.49533 4.28571,2.85715c2.11523,0.34326 5.18298,-0.32233 8.57147,-2.14288c9.94879,-5.34531 15.71429,-10.71426 22.14282,-16.42856c6.42859,-5.71429 12.61774,-11.00192 18.57147,-15.71429c4.81793,-3.81342 9.28571,-6.42856 12.14282,-7.85715l2.85718,-1.42856" id="svg_20" stroke="#000" fill="none"/>
  <polyline stroke-linecap="round" id="svg_21" points="-14.857149344723483,233.14288516920564 -15.5714350914471,233.14288516920564 " stroke="#000" fill="none"/>
 </g>
</svg>